<svg width="154" height="28" viewBox="0 0 154 28" fill="none" xmlns="http://www.w3.org/2000/svg">
<path d="M13.248 8.395H7.912V23H5.6925V8.395H0.345V6.5205H13.248V8.395ZM22.8277 16.882L20.2402 10.1775C20.1635 9.97817 20.083 9.74817 19.9987 9.4875C19.9143 9.21917 19.8338 8.9355 19.7572 8.6365C19.5962 9.2575 19.4313 9.775 19.2627 10.189L16.6752 16.882H22.8277ZM27.4737 23H25.7487C25.5493 23 25.3883 22.9502 25.2657 22.8505C25.143 22.7508 25.051 22.6243 24.9897 22.471L23.4487 18.492H16.0542L14.5132 22.471C14.4672 22.609 14.379 22.7317 14.2487 22.839C14.1183 22.9463 13.9573 23 13.7657 23H12.0407L18.6302 6.5205H20.8842L27.4737 23ZM38.9911 21.1255V23H29.6416V6.5205H31.8611V21.1255H38.9911ZM51.6221 21.183L51.6106 23H41.4561V6.5205H51.6106V8.3375H43.6871V13.8115H50.1041V15.5595H43.6871V21.183H51.6221ZM68.082 6.5205V23H66.9665C66.7901 23 66.6406 22.9693 66.518 22.908C66.403 22.8467 66.288 22.7432 66.173 22.5975L56.6395 10.1775C56.6548 10.3692 56.6663 10.557 56.674 10.741C56.6816 10.925 56.6855 11.0975 56.6855 11.2585V23H54.7305V6.5205H55.8805C55.9801 6.5205 56.0645 6.52817 56.1335 6.5435C56.2025 6.55117 56.2638 6.57033 56.3175 6.601C56.3711 6.624 56.4248 6.66233 56.4785 6.716C56.5321 6.762 56.5896 6.82333 56.651 6.9L66.1845 19.3085C66.1691 19.1092 66.1538 18.9175 66.1385 18.7335C66.1308 18.5418 66.127 18.3617 66.127 18.193V6.5205H68.082ZM83.4384 8.395H78.1024V23H75.8829V8.395H70.5354V6.5205H83.4384V8.395ZM91.1623 14.6165C92.2433 14.6165 93.033 14.3558 93.5313 13.8345C94.0373 13.3132 94.2903 12.6002 94.2903 11.6955C94.2903 11.2815 94.2251 10.9058 94.0948 10.5685C93.9721 10.2235 93.7805 9.93217 93.5198 9.6945C93.2668 9.44917 92.9448 9.26133 92.5538 9.131C92.1628 9.00067 91.699 8.9355 91.1623 8.9355H88.9773V14.6165H91.1623ZM91.1623 6.3135C92.3046 6.3135 93.2898 6.44767 94.1178 6.716C94.9535 6.98433 95.6396 7.36 96.1763 7.843C96.713 8.31833 97.1078 8.88567 97.3608 9.545C97.6215 10.2043 97.7518 10.9212 97.7518 11.6955C97.7518 12.5158 97.6176 13.2672 97.3493 13.9495C97.081 14.6318 96.6746 15.2183 96.1303 15.709C95.586 16.1997 94.8998 16.583 94.0718 16.859C93.2438 17.1273 92.274 17.2615 91.1623 17.2615H88.9773V23H85.5273V6.3135H91.1623ZM116.07 14.651C116.07 15.87 115.863 17.0008 115.449 18.0435C115.043 19.0862 114.464 19.987 113.713 20.746C112.969 21.505 112.072 22.103 111.022 22.54C109.971 22.9693 108.806 23.184 107.526 23.184C106.245 23.184 105.08 22.9693 104.03 22.54C102.979 22.103 102.079 21.505 101.327 20.746C100.576 19.987 99.9932 19.0862 99.5792 18.0435C99.1729 17.0008 98.9697 15.87 98.9697 14.651C98.9697 13.432 99.1729 12.305 99.5792 11.27C99.9932 10.2273 100.576 9.3265 101.327 8.5675C102.079 7.8085 102.979 7.21433 104.03 6.785C105.08 6.348 106.245 6.1295 107.526 6.1295C108.806 6.1295 109.971 6.348 111.022 6.785C112.072 7.21433 112.969 7.81233 113.713 8.579C114.464 9.338 115.043 10.2388 115.449 11.2815C115.863 12.3165 116.07 13.4397 116.07 14.651ZM112.54 14.651C112.54 13.777 112.425 12.995 112.195 12.305C111.965 11.6073 111.631 11.017 111.194 10.534C110.765 10.0433 110.24 9.6715 109.619 9.4185C109.005 9.15783 108.308 9.0275 107.526 9.0275C106.744 9.0275 106.042 9.15783 105.421 9.4185C104.8 9.6715 104.271 10.0433 103.834 10.534C103.405 11.017 103.075 11.6073 102.845 12.305C102.615 12.995 102.5 13.777 102.5 14.651C102.5 15.5327 102.615 16.3223 102.845 17.02C103.075 17.71 103.405 18.2965 103.834 18.7795C104.271 19.2625 104.8 19.6343 105.421 19.895C106.042 20.148 106.744 20.2745 107.526 20.2745C108.308 20.2745 109.005 20.148 109.619 19.895C110.24 19.6343 110.765 19.2625 111.194 18.7795C111.631 18.2965 111.965 17.71 112.195 17.02C112.425 16.3223 112.54 15.5327 112.54 14.651ZM134.713 14.651C134.713 15.87 134.506 17.0008 134.092 18.0435C133.685 19.0862 133.107 19.987 132.355 20.746C131.612 21.505 130.715 22.103 129.664 22.54C128.614 22.9693 127.449 23.184 126.168 23.184C124.888 23.184 123.723 22.9693 122.672 22.54C121.622 22.103 120.721 21.505 119.97 20.746C119.218 19.987 118.636 19.0862 118.222 18.0435C117.815 17.0008 117.612 15.87 117.612 14.651C117.612 13.432 117.815 12.305 118.222 11.27C118.636 10.2273 119.218 9.3265 119.97 8.5675C120.721 7.8085 121.622 7.21433 122.672 6.785C123.723 6.348 124.888 6.1295 126.168 6.1295C127.449 6.1295 128.614 6.348 129.664 6.785C130.715 7.21433 131.612 7.81233 132.355 8.579C133.107 9.338 133.685 10.2388 134.092 11.2815C134.506 12.3165 134.713 13.4397 134.713 14.651ZM131.182 14.651C131.182 13.777 131.067 12.995 130.837 12.305C130.607 11.6073 130.274 11.017 129.837 10.534C129.407 10.0433 128.882 9.6715 128.261 9.4185C127.648 9.15783 126.95 9.0275 126.168 9.0275C125.386 9.0275 124.685 9.15783 124.064 9.4185C123.443 9.6715 122.914 10.0433 122.477 10.534C122.047 11.017 121.718 11.6073 121.488 12.305C121.258 12.995 121.143 13.777 121.143 14.651C121.143 15.5327 121.258 16.3223 121.488 17.02C121.718 17.71 122.047 18.2965 122.477 18.7795C122.914 19.2625 123.443 19.6343 124.064 19.895C124.685 20.148 125.386 20.2745 126.168 20.2745C126.95 20.2745 127.648 20.148 128.261 19.895C128.882 19.6343 129.407 19.2625 129.837 18.7795C130.274 18.2965 130.607 17.71 130.837 17.02C131.067 16.3223 131.182 15.5327 131.182 14.651ZM147.134 20.194V23H137.232V6.3135H140.682V20.194H147.134Z" fill="#181D27"/>
</svg>
